<?xml version="1.0" standalone="no"?>
<!DOCTYPE svg PUBLIC "-//W3C//DTD SVG 20010904//EN"
 "http://www.w3.org/TR/2001/REC-SVG-20010904/DTD/svg10.dtd">
<svg version="1.0" xmlns="http://www.w3.org/2000/svg"
 width="700.000000pt" height="700.000000pt" viewBox="0 0 700.000000 700.000000"
 preserveAspectRatio="xMidYMid meet">
<metadata>
Created by potrace 1.14, written by Peter Selinger 2001-2017
</metadata>
<g transform="translate(0.000000,700.000000) scale(0.100000,-0.100000)"
fill="#000000" stroke="none">
<path d="M3409 6706 c-2 -2 -35 -6 -74 -10 -162 -14 -301 -55 -473 -138 -451
-216 -756 -650 -811 -1153 -4 -38 -8 -218 -9 -398 0 -181 -3 -331 -6 -334 -3
-3 -87 -6 -188 -8 -259 -3 -356 -33 -487 -151 -100 -91 -172 -223 -188 -347
-3 -28 -6 -731 -6 -1562 0 -1672 -4 -1559 65 -1703 39 -81 147 -194 228 -239
30 -17 87 -42 125 -55 l70 -23 1845 0 1845 0 70 22 c197 63 350 224 401 423
16 59 17 200 17 1590 1 1549 0 1575 -35 1660 -35 87 -71 142 -133 206 -79 80
-130 113 -236 151 -69 24 -87 26 -267 28 -106 2 -195 5 -198 8 -3 3 -6 153 -6
334 -1 394 -13 516 -69 688 -21 66 -20 63 -78 188 -196 423 -609 730 -1086
807 -69 12 -308 24 -316 16z m241 -565 c176 -28 333 -108 476 -244 67 -63 174
-202 174 -226 0 -5 9 -25 19 -43 25 -42 68 -187 77 -258 4 -30 8 -200 8 -378
1 -315 1 -322 -19 -323 -98 -4 -1774 -1 -1781 3 -10 7 -11 640 0 703 35 208
123 381 268 521 209 204 483 290 778 245z m1598 -3513 c2 -1380 1 -1456 -15
-1459 -15 -3 -3428 -3 -3470 0 -17 1 -19 2907 -3 2913 5 2 792 3 1747 2 l1738
0 3 -1456z"/>
<path d="M3210 3355 c0 -407 -1 -435 -17 -436 -10 -1 -202 -2 -428 -3 -225 -2
-415 -4 -421 -4 -8 -2 -11 -87 -11 -290 l1 -289 435 0 436 0 3 -436 c2 -339 5
-437 15 -438 14 -1 536 -1 555 0 9 1 12 95 12 436 0 407 1 435 18 436 9 0 206
1 437 2 l420 2 0 290 0 290 -425 2 c-234 0 -431 1 -437 2 -10 1 -13 95 -13
436 l0 435 -290 0 -290 0 0 -435z"/>
</g>
</svg>
